# xmcd
#
# Track frame offsets:
#	150
#	12500
#	21367
#	32284
#	43646
#	56226
#	69714
#	80404
#	91311
#	105996
#
# Disc length: 1531 seconds
#
# Revision: 3
# Processed by: cddbd v1.5.2PL0 Copyright (c) Steve Scherf et al.
# Submitted via: audiograbber 1.83.01
#
DISCID=7805f90a
DTITLE=Various Artist - Country Town
DYEAR=2003
DGENRE=Country
TTITLE0=Merle Haggard - Okie From Muskogee
TTITLE1=Roger Miller - England Swings
TTITLE2=Eddie Raven - I Got Mexico
TTITLE3=Conway Twitty - Hello Darlin'
TTITLE4=Jerry Wallace - Shutters and Boards
TTITLE5=The Kendalls - Pittsburgh Steelers
TTITLE6=Roger Miller - Kansas City Star
TTITLE7=Wynne Stewart - Big City
TTITLE8=Merle Haggard - I'm A Lonesome Fugitive
TTITLE9=Roger Miller - Billy Bayou
EXTD=
EXTT0=
EXTT1=
EXTT2=
EXTT3=
EXTT4=
EXTT5=
EXTT6=
EXTT7=
EXTT8=
EXTT9=
PLAYORDER=
